<svg xmlns="http://www.w3.org/2000/svg" width="190" height="70" viewBox="0,0,190,70"><path fill="#333" d="M117.28 48.18L117.24 48.15L117.32 48.22Q117.17 52.93 112.89 54.69L113.01 54.82L112.91 54.71Q110.45 55.93 104.46 56.13L104.44 56.11L104.43 56.10Q97.81 56.15 94.77 54.55L94.78 54.57L94.87 54.65Q92.45 52.96 92.65 48.41L92.51 48.27L92.65 48.41Q92.62 47.49 92.88 44.81L92.87 44.80L92.88 44.81Q93.04 42.64 93.04 41.30L93.08 41.34L92.98 41.25Q93.03 30.44 87.35 20.37L87.39 20.41L87.36 20.38Q88.92 21.27 92.95 22.71L92.89 22.66L92.87 22.64Q96.77 31.76 96.77 41.78L96.80 41.81L96.80 41.81Q96.81 42.64 96.68 44.25L96.67 44.24L96.76 44.33Q96.55 45.85 96.55 46.68L96.61 46.73L96.63 46.75Q96.65 49.88 98.77 51.22L98.70 51.15L98.75 51.20Q100.90 52.21 104.93 52.21L105.04 52.32L105.07 52.36Q108.58 52.30 110.80 50.70L110.71 50.60L110.73 50.63Q113.23 48.78 113.02 45.37L113.08 45.43L113.02 45.37Q112.85 43.44 112.85 41.63L112.87 41.65L112.85 41.64Q112.96 32.19 116.21 23.35L116.15 23.29L119.23 22.64L119.16 22.57Q120.55 22.26 122.05 21.64L121.92 21.51L122.04 21.63Q116.88 31.20 116.88 41.48L116.86 41.46L116.95 41.55Q116.93 42.66 117.11 44.89L117.00 44.78L117.16 44.94Q117.30 47.12 117.30 48.21ZM120.09 49.28L120.17 49.37L120.17 49.37Q119.01 42.69 120.00 35.76L119.89 35.65L119.99 35.76Q120.91 28.61 124.16 22.67L124.33 22.84L124.22 22.73Q123.46 23.21 121.50 24.09L121.45 24.04L121.38 23.97Q121.88 22.82 122.97 20.70L122.91 20.65L122.95 20.69Q118.39 22.47 115.80 22.94L115.74 22.87L115.69 22.83Q112.50 31.68 112.50 41.54L112.50 41.54L112.57 41.61Q112.61 43.51 112.71 45.42L112.56 45.28L112.58 45.30Q112.76 48.52 110.33 50.17L110.33 50.18L110.46 50.31Q108.30 51.60 104.89 51.65L104.99 51.76L104.96 51.72Q101.11 51.70 99.15 50.66L99.32 50.84L99.25 50.77Q99.08 50.03 98.97 49.41L98.95 49.39L99.00 49.44Q98.91 48.72 99.06 48.05L99.15 48.13L99.06 48.05Q99.35 44.88 99.35 41.73L99.46 41.83L99.41 41.79Q99.39 33.86 97.32 25.85L97.33 25.86L97.41 25.94Q96.30 25.66 94.39 25.19L94.49 25.29L94.47 25.27Q93.89 23.45 93.27 22.21L93.28 22.22L93.35 22.29Q89.64 21.21 86.38 19.35L86.45 19.42L86.28 19.25Q92.60 29.60 92.60 41.43L92.64 41.48L92.61 41.44Q92.72 43.78 92.52 46.10L92.51 46.09L92.46 46.04Q92.11 49.26 92.21 50.86L92.27 50.91L92.23 50.88Q92.50 53.58 94.20 55.13L94.14 55.06L94.16 55.08Q95.39 58.33 101.70 58.85L101.79 58.94L101.75 58.90Q104.67 59.19 107.57 59.29L107.51 59.24L107.41 59.14Q114.86 59.56 118.63 58.27L118.53 58.17L118.49 58.13Q120.77 57.05 120.77 54.26L120.69 54.17L120.65 54.13Q120.73 52.67 120.11 49.31Z"></path><path fill="#333" d="M75.21 55.29L75.21 55.29L75.26 55.34Q69.40 54.39 66.92 52.42L66.98 52.49L67.00 52.50Q64.55 50.57 63.98 46.49L63.99 46.50L63.99 46.50Q63.96 46.00 63.50 39.55L63.37 39.42L63.53 39.58Q63.45 37.85 63.35 36.15L63.52 36.32L63.44 36.24Q63.27 29.45 66.26 27.07L66.14 26.95L66.23 27.04Q69.81 24.16 80.35 23.23L80.39 23.27L80.41 23.29Q82.13 23.00 84.35 23.05L84.30 23.00L84.31 23.01Q84.39 23.09 88.42 23.09L88.35 23.02L88.49 23.15Q89.63 23.16 91.95 23.37L91.91 23.33L91.93 23.34Q91.24 24.62 89.85 28.80L89.89 28.85L89.73 28.68Q87.03 27.17 82.95 27.17L82.88 27.10L82.81 27.03Q81.82 27.08 80.74 27.18L80.77 27.22L80.80 27.24Q73.84 27.83 70.43 30.51L70.45 30.54L70.38 30.47Q67.64 32.63 67.43 37.18L67.43 37.18L67.47 37.22Q67.39 38.01 67.44 39.72L67.40 39.68L67.47 39.75Q67.68 46.37 70.94 49.21L70.97 49.24L70.87 49.14Q73.87 51.83 80.64 52.24L80.57 52.18L80.69 52.30Q84.84 52.41 88.92 49.98L88.96 50.02L88.96 50.03Q89.72 53.68 90.55 55.54L90.61 55.61L90.65 55.64Q87.71 55.91 85.49 55.86L85.41 55.78L85.55 55.92Q79.49 55.85 75.26 55.34ZM95.62 60.25L95.60 60.23L95.66 60.29Q93.25 56.23 92.32 52.72L92.29 52.69L92.33 52.73Q91.70 53.03 90.36 53.54L90.32 53.50L90.38 53.56Q90.00 52.56 89.74 51.43L89.61 51.30L89.09 48.97L89.08 48.96Q84.65 51.76 80.41 51.60L80.46 51.66L80.48 51.68Q74.75 51.47 71.60 49.09L71.50 49.00L71.57 49.07Q69.91 46.48 70.01 42.50L70.02 42.50L70.02 42.50Q70.37 36.55 73.73 33.66L73.74 33.67L73.59 33.52Q76.65 31.10 83.00 30.27L82.99 30.26L82.89 30.16Q83.91 29.94 84.89 29.94L84.95 30.00L85.08 30.14Q88.71 29.99 91.55 32.06L91.60 32.10L91.58 32.09Q92.28 29.22 93.93 24.83L93.84 24.74L93.96 24.85Q93.59 24.85 92.84 24.77L92.85 24.78L92.92 24.84Q92.10 24.70 91.73 24.70L91.63 24.59L91.79 24.75Q92.05 24.03 92.67 22.69L92.64 22.65L92.61 22.62Q92.31 22.64 88.93 22.54L88.98 22.59L88.97 22.58Q85.50 22.38 84.62 22.44L84.54 22.36L84.64 22.45Q70.44 22.98 65.74 26.49L65.62 26.38L65.71 26.47Q63.01 28.98 63.01 34.31L62.98 34.28L62.84 34.14Q62.91 35.71 63.07 39.37L63.07 39.38L63.15 39.46Q63.26 44.22 63.57 46.54L63.45 46.42L63.54 46.51Q64.07 50.77 66.24 52.83L66.16 52.75L66.29 52.88Q66.97 53.82 68.68 55.37L68.60 55.29L68.59 55.28Q73.07 57.75 80.20 58.79L80.14 58.72L80.24 58.82Q88.88 60.02 95.64 60.28Z"></path><path fill="#222" d="M135.53 37.95L135.58 37.99L135.52 37.94Q136.65 37.98 138.56 37.77L138.59 37.80L138.54 37.76Q138.51 38.66 138.51 39.53L138.40 39.43L138.37 41.10L138.57 41.30Q137.38 41.24 136.24 41.35L136.17 41.27L136.10 41.21Q135.07 41.37 133.94 41.32L133.93 41.31L133.83 41.21Q130.10 49.73 125.45 55.98L125.44 55.97L125.43 55.95Q122.06 56.87 120.30 57.70L120.18 57.58L120.20 57.60Q125.72 49.78 129.85 41.26L129.94 41.35L126.40 41.37L126.29 41.26Q126.46 39.63 126.30 37.82L126.18 37.69L126.21 37.72Q128.79 37.93 131.58 37.93L131.63 37.98L134.15 32.90L134.28 33.03Q135.59 30.42 137.25 28.25L137.25 28.25L137.19 28.19Q135.11 28.44 132.94 28.44L132.92 28.42L132.92 28.42Q124.56 28.32 119.44 25.32L119.50 25.39L118.67 23.10L118.54 22.98Q118.15 21.92 117.64 20.73L117.70 20.79L117.63 20.72Q123.56 24.33 131.31 24.64L131.28 24.60L131.20 24.53Q138.29 24.96 145.27 22.27L145.28 22.28L145.21 22.21Q145.00 22.82 144.32 24.01L144.30 23.98L144.37 24.06Q139.32 30.37 135.45 37.86ZM146.47 25.85L146.46 25.84L147.85 23.14L147.90 23.19Q146.52 23.78 144.25 24.76L144.32 24.83L144.46 24.30L144.53 24.37Q144.64 24.12 144.80 23.97L144.82 23.99L144.80 23.97Q145.41 23.13 146.39 21.32L146.35 21.29L146.22 21.16Q139.11 24.37 131.30 24.06L131.27 24.03L131.34 24.09Q123.04 23.60 116.58 19.57L116.70 19.69L116.76 19.75Q118.13 22.26 119.27 25.87L119.13 25.74L119.17 25.77Q120.69 26.67 121.77 27.09L121.75 27.06L121.83 27.14Q122.03 27.60 122.65 30.13L122.65 30.13L122.60 30.08Q126.83 31.73 134.32 31.52L134.39 31.59L134.48 31.68Q134.00 32.39 131.31 37.50L131.23 37.42L131.33 37.52Q128.56 37.54 125.87 37.28L125.82 37.23L125.88 37.29Q125.99 38.44 125.99 39.62L125.84 39.47L126.02 41.97L128.27 41.95L128.17 43.76L128.09 43.69Q122.91 53.85 119.14 58.71L119.13 58.69L119.11 58.68Q121.28 57.64 123.50 56.97L123.46 56.93L123.48 56.95Q122.50 58.14 120.64 60.47L120.61 60.44L120.69 60.51Q124.96 59.00 128.27 58.69L128.20 58.62L128.19 58.62Q132.24 53.57 136.48 44.38L136.54 44.44L141.09 44.59L141.26 44.76Q141.14 43.50 141.14 42.26L141.10 42.23L141.02 39.72L141.09 39.79Q140.61 39.67 139.86 39.72L140.00 39.86L139.93 39.79Q139.18 39.84 138.81 39.84L138.85 39.88L138.85 39.88Q138.92 39.79 138.97 39.58L138.80 39.41L138.88 39.12L138.90 39.15Q142.25 32.11 146.43 25.81Z"></path><path fill="#333" d="M159.85 41.66L159.82 41.63L159.88 41.70Q156.38 41.45 154.57 43.10L154.57 43.10L154.58 43.11Q152.84 44.84 153.26 48.25L153.24 48.23L153.11 48.10Q153.63 51.62 155.28 53.32L155.28 53.32L155.18 53.21Q156.85 55.25 159.74 55.14L159.67 55.07L159.64 55.05Q160.27 54.90 160.53 54.90L160.67 55.04L160.53 54.90Q165.40 54.14 165.55 47.88L165.50 47.83L165.49 47.82Q165.60 44.63 164.67 43.54L164.82 43.69L164.69 43.56Q163.31 41.87 159.85 41.66ZM164.31 57.54L164.43 57.66L164.38 57.61Q162.51 58.32 160.39 58.22L160.42 58.25L160.38 58.21Q155.25 58.56 153.49 55.04L153.41 54.96L153.52 55.07Q153.23 62.27 151.42 68.06L151.49 68.12L151.51 68.15Q149.01 68.75 146.79 69.73L146.74 69.68L146.84 69.78Q150.19 61.56 149.83 52.10L149.90 52.17L149.89 52.17Q149.48 42.81 145.55 34.60L145.73 34.77L145.64 34.69Q148.37 36.39 150.70 37.01L150.56 36.87L151.35 38.95L151.22 38.82Q151.49 39.40 151.85 40.90L151.77 40.82L151.77 40.82Q153.27 38.13 158.13 37.87L158.07 37.81L158.11 37.86Q159.15 37.66 160.34 37.66L160.43 37.74L161.10 37.75L161.19 37.84Q161.18 37.67 161.43 37.72L161.47 37.76L161.85 37.72L161.84 37.71Q164.76 38.20 165.74 38.51L165.75 38.53L165.70 38.47Q167.81 39.18 168.99 40.47L168.92 40.40L168.94 40.42Q170.05 41.99 170.00 43.90L169.96 43.87L170.09 44.00Q170.03 47.81 168.95 51.43L168.87 51.36L169.03 51.52Q167.64 56.28 164.44 57.67ZM170.06 58.33L170.10 58.32L170.05 58.27Q171.72 55.76 172.14 50.18L172.05 50.09L172.08 50.12Q172.16 47.62 172.16 45.92L172.31 46.07L172.27 46.02Q172.39 44.08 171.36 42.17L171.21 42.01L171.35 42.16Q170.63 41.38 169.95 40.87L169.97 40.88L169.71 40.46L169.53 40.14L169.47 39.91L169.47 39.91Q167.12 37.15 161.23 37.15L161.27 37.19L160.34 37.09L160.38 37.13Q154.04 37.09 151.82 39.26L151.98 39.43L151.81 39.25Q151.61 38.59 151.40 37.92L151.53 38.04L151.15 36.58L151.10 36.53Q147.72 35.68 144.72 33.66L144.74 33.69L144.70 33.65Q149.10 42.17 149.51 51.99L149.54 52.02L149.53 52.01Q149.85 61.78 145.97 70.57L146.10 70.69L148.73 69.45L148.68 69.40Q148.31 70.37 147.38 72.49L147.51 72.62L147.49 72.60Q151.07 71.07 154.23 70.60L154.26 70.64L154.22 70.60Q155.68 64.00 155.89 58.94L156.02 59.07L155.98 59.02Q157.83 60.98 162.74 61.29L162.76 61.31L162.89 61.45Q168.07 61.61 170.03 58.31L170.20 58.47ZM162.46 44.74L162.35 44.63L162.51 44.79Q163.38 44.68 164.88 45.15L164.78 45.04L164.86 45.12Q165.25 46.50 165.20 48.10L165.03 47.93L165.05 47.95Q165.04 49.18 164.78 50.06L164.95 50.23L164.84 50.11Q163.91 54.09 160.50 54.50L160.46 54.47L160.70 54.56L160.59 54.45Q160.59 54.54 160.43 54.59L160.35 54.51L159.60 54.48L159.69 54.57Q158.04 54.52 156.69 53.85L156.79 53.95L156.13 50.96L156.26 51.10Q156.08 47.97 157.84 46.57L157.80 46.54L157.82 46.55Q159.16 45.05 162.41 44.69Z"></path><path fill="#222" d="M54.99 37.98L54.99 37.98L54.95 37.94Q55.99 37.89 57.90 37.68L57.87 37.65L58.03 37.82Q57.87 38.59 57.87 39.47L57.94 39.53L57.92 41.22L57.84 41.14Q56.77 41.21 55.64 41.32L55.62 41.29L55.64 41.32Q54.58 41.44 53.44 41.39L53.26 41.21L53.42 41.37Q49.54 49.73 44.89 55.99L44.77 55.87L44.87 55.96Q41.47 56.85 39.71 57.68L39.63 57.60L39.59 57.56Q45.28 49.92 49.41 41.39L49.41 41.39L45.76 41.31L45.74 41.28Q45.84 39.57 45.68 37.77L45.58 37.67L45.56 37.65Q48.20 37.91 50.99 37.91L50.99 37.91L53.51 32.83L53.54 32.86Q54.90 30.30 56.56 28.13L56.54 28.11L56.63 28.20Q54.40 28.30 52.23 28.30L52.28 28.35L52.30 28.37Q44.05 28.38 38.93 25.38L38.99 25.45L38.15 23.15L38.15 23.16Q37.69 22.03 37.18 20.84L37.16 20.82L37.09 20.75Q42.99 24.33 50.74 24.64L50.78 24.67L50.76 24.65Q57.69 24.92 64.66 22.23L64.71 22.28L64.60 22.17Q64.43 22.83 63.76 24.02L63.69 23.95L63.81 24.07Q58.76 30.38 54.88 37.87ZM65.87 25.82L65.97 25.91L67.32 23.18L67.29 23.15Q65.87 23.70 63.60 24.68L63.77 24.85L64.00 24.42L64.02 24.43Q64.16 24.21 64.31 24.06L64.21 23.95L64.35 24.09Q64.74 23.04 65.73 21.23L65.79 21.29L65.83 21.34Q58.51 24.35 50.71 24.04L50.77 24.10L50.71 24.04Q42.47 23.60 36.01 19.57L36.00 19.56L36.11 19.67Q37.48 22.18 38.62 25.79L38.66 25.84L38.60 25.78Q40.03 26.59 41.12 27.00L41.21 27.10L41.28 27.16Q41.42 27.56 42.04 30.09L42.00 30.05L42.09 30.14Q46.41 31.89 53.91 31.68L53.77 31.55L53.80 31.58Q53.33 32.29 50.65 37.41L50.74 37.50L50.66 37.42Q47.93 37.48 45.24 37.22L45.22 37.20L45.28 37.26Q45.30 38.31 45.30 39.50L45.29 39.49L45.35 41.88L47.62 41.88L47.61 43.77L47.61 43.78Q42.27 53.78 38.50 58.64L38.50 58.64L38.55 58.69Q40.68 57.61 42.90 56.94L42.95 56.99L42.85 56.89Q41.93 58.14 40.07 60.47L40.10 60.50L40.12 60.52Q44.50 59.11 47.81 58.80L47.70 58.69L47.67 58.66Q51.64 53.54 55.88 44.34L55.94 44.41L60.50 44.57L60.66 44.74Q60.48 43.42 60.48 42.18L60.39 42.09L60.57 39.84L60.50 39.77Q60.18 39.81 59.43 39.86L59.47 39.90L59.28 39.71Q58.58 39.81 58.21 39.81L58.16 39.76L58.26 39.85Q58.34 39.78 58.39 39.57L58.39 39.57L58.33 39.15L58.25 39.07Q61.73 32.17 65.92 25.87Z"></path><path fill="#333" d="M22.00 38.64L21.89 38.53L21.87 38.51Q18.99 38.68 17.26 40.72L17.12 40.58L17.27 40.73Q15.48 42.72 15.33 45.81L15.25 45.74L15.28 45.77Q15.15 49.41 16.29 50.70L16.28 50.69L16.26 50.67Q17.78 52.40 20.93 52.19L20.88 52.14L21.00 52.26Q27.27 51.82 27.79 47.74L27.81 47.75L27.64 47.59Q27.81 46.52 27.81 45.43L27.95 45.58L27.95 45.57Q27.77 42.71 26.22 40.64L26.19 40.61L26.22 40.64Q24.54 38.50 21.91 38.55ZM28.39 52.16L28.55 52.32L28.54 52.31Q26.47 55.15 20.53 55.46L20.61 55.54L20.58 55.51Q14.88 55.70 12.66 54.20L12.73 54.27L12.76 54.31Q11.36 52.96 11.16 50.63L11.24 50.72L11.25 50.72Q11.15 49.19 11.41 46.65L11.29 46.53L11.33 46.57Q12.08 40.82 13.74 38.34L13.69 38.29L13.80 38.40Q15.94 34.96 21.16 35.01L21.10 34.95L21.18 35.03Q24.66 35.15 27.76 38.30L27.70 38.24L27.60 38.14Q27.74 30.23 29.91 21.39L29.98 21.46L29.95 21.43Q32.63 20.96 35.16 19.82L35.07 19.73L35.01 19.67Q31.58 28.74 31.22 38.25L31.15 38.18L31.25 38.28Q30.70 47.86 33.59 56.80L33.60 56.81L33.64 56.84Q31.49 56.09 29.17 55.57L29.17 55.57L29.23 55.64Q28.65 53.71 28.44 52.22ZM32.65 59.72L32.55 59.63L32.54 59.61Q35.53 60.54 38.99 62.61L38.83 62.45L38.86 62.48Q33.93 53.00 33.72 41.74L33.72 41.73L33.59 41.61Q33.43 30.49 37.62 20.47L37.66 20.51L37.64 20.50Q36.76 21.16 34.79 22.04L34.76 22.01L34.79 22.03Q35.20 20.43 36.03 18.78L36.11 18.86L36.08 18.83Q32.91 20.36 29.60 21.14L29.56 21.09L29.57 21.10Q27.57 28.91 27.20 37.18L27.12 37.10L27.09 37.07Q24.51 34.59 21.10 34.43L21.14 34.48L21.10 34.44Q16.42 34.25 13.84 37.09L13.90 37.15L13.99 37.25Q11.63 40.41 11.06 46.76L11.06 46.77L11.04 46.75Q10.57 50.36 10.57 50.93L10.70 51.06L10.61 50.97Q10.79 53.42 12.34 54.87L12.33 54.86L12.28 54.81Q12.67 55.20 12.93 55.30L12.88 55.25L13.57 56.20L13.46 56.09Q14.89 58.03 18.92 58.40L18.87 58.35L18.95 58.43Q21.86 58.55 23.72 58.65L23.69 58.62L23.76 58.69Q29.50 59.01 31.83 57.20L31.73 57.10L31.71 57.08Q32.01 58.15 32.63 59.70ZM24.04 41.61L24.17 41.75L24.17 41.74Q25.63 41.80 26.76 42.47L26.72 42.43L26.77 42.48Q27.20 44.00 27.30 45.39L27.38 45.47L27.36 45.45Q27.86 51.27 21.04 51.74L20.94 51.63L21.01 51.71Q19.84 51.77 18.34 51.41L18.22 51.29L18.36 51.44Q17.93 50.48 17.82 49.76L17.89 49.83L17.85 49.79Q17.83 48.94 17.88 48.11L17.79 48.02L17.98 48.21Q18.24 43.41 21.81 42.06L21.81 42.07L21.88 42.14Q23.10 41.55 24.03 41.61Z"></path><path d="M5 30 C108 63,74 51,182 40" stroke="#444" fill="none"></path><path d="M17 44 C110 48,91 4,183 60" stroke="#666" fill="none"></path></svg>